<svg width="31" height="30" viewBox="0 0 31 30" fill="none" xmlns="http://www.w3.org/2000/svg">
<g id="bell-outline">
<path id="Vector" d="M13.3447 26.25H18.3447C18.3447 27.625 17.2197 28.75 15.8447 28.75C14.4697 28.75 13.3447 27.625 13.3447 26.25ZM27.0947 23.75V25H4.59473V23.75L7.09473 21.25V13.75C7.09473 9.875 9.59473 6.5 13.3447 5.375V5C13.3447 3.625 14.4697 2.5 15.8447 2.5C17.2197 2.5 18.3447 3.625 18.3447 5V5.375C22.0947 6.5 24.5947 9.875 24.5947 13.75V21.25L27.0947 23.75ZM22.0947 13.75C22.0947 10.25 19.3447 7.5 15.8447 7.5C12.3447 7.5 9.59473 10.25 9.59473 13.75V22.5H22.0947V13.75Z" fill="#626262"/>
</g>
</svg>
