<svg width="19" height="20" viewBox="0 0 19 20" fill="none" xmlns="http://www.w3.org/2000/svg">
<g id="Emoji">
<path id="Vector" d="M2.72325 5.10066C3.2498 4.73263 4.04356 4.80321 4.51634 5.19364L3.9741 4.40549C3.53773 3.78315 3.69401 3.10983 4.31692 2.6729C4.93982 2.23765 6.70491 3.40784 6.70491 3.40784C6.26462 2.77933 6.34696 1.98277 6.97547 1.54192C7.60397 1.10275 8.47111 1.25456 8.9114 1.88418L14.7483 10.1298L14.0044 17.342L7.79611 15.0778L2.38098 7.04891C1.93677 6.41649 2.09026 5.54431 2.72325 5.10066Z" fill="#EF9645"/>
<path id="Vector_2" d="M1.50991 9.68703C1.50991 9.68703 0.875801 8.76275 1.80063 8.12921C2.72435 7.49566 3.3579 8.41937 3.3579 8.41937L6.29933 12.7091C6.40072 12.54 6.51163 12.373 6.63543 12.2083L2.55294 6.25545C2.55294 6.25545 1.91939 5.33174 2.84366 4.69819C3.76738 4.06464 4.40093 4.98836 4.40093 4.98836L8.24086 10.5883C8.38371 10.4718 8.52991 10.3547 8.68059 10.2399L4.22895 3.74703C4.22895 3.74703 3.59541 2.82331 4.51968 2.18977C5.44339 1.55622 6.07694 2.47993 6.07694 2.47993L10.5286 8.97169C10.6922 8.87143 10.854 8.7846 11.0165 8.69273L6.85557 2.62501C6.85557 2.62501 6.22202 1.7013 7.14574 1.06775C8.06945 0.434205 8.703 1.35792 8.703 1.35792L13.1025 7.77406L13.7714 8.74987C10.9997 10.6511 10.7358 14.2277 12.3194 16.5373C12.6359 16.9994 13.0981 16.6829 13.0981 16.6829C11.1974 13.9107 11.7778 10.7956 14.55 8.89495L13.7327 4.80462C13.7327 4.80462 13.4274 3.72686 14.5046 3.42101C15.5824 3.11572 15.8883 4.19348 15.8883 4.19348L16.8321 6.99655C17.2063 8.10792 17.6046 9.21537 18.1317 10.2629C19.6201 13.2206 18.7311 16.8964 15.9247 18.8217C12.8634 20.9206 8.67835 20.1403 6.57885 17.0795L1.50991 9.68703Z" fill="#FFDC5D"/>
<g id="Group">
<path id="Vector_3" d="M4.20129 11.203C2.80087 11.203 1.38575 9.78784 1.38575 8.38743C1.38575 8.19382 1.24396 8.03732 1.05036 8.03732C0.856748 8.03732 0.685547 8.19382 0.685547 8.38743C0.685547 10.488 2.10067 11.9032 4.20129 11.9032C4.3949 11.9032 4.55139 11.732 4.55139 11.5384C4.55139 11.3448 4.3949 11.203 4.20129 11.203Z" fill="#5DADEC"/>
<path id="Vector_4" d="M2.45073 11.8885C1.40041 11.8885 0.700207 11.1883 0.700207 10.1379C0.700207 9.94434 0.543711 9.78785 0.350104 9.78785C0.156496 9.78785 0 9.94434 0 10.1379C0 11.5384 1.05031 12.5887 2.45073 12.5887C2.64433 12.5887 2.80083 12.4322 2.80083 12.2386C2.80083 12.045 2.64433 11.8885 2.45073 11.8885ZM8.40249 0.68515C8.20923 0.68515 8.05239 0.841997 8.05239 1.03525C8.05239 1.22851 8.20923 1.38536 8.40249 1.38536C9.8029 1.38536 11.2033 2.64188 11.2033 4.18619C11.2033 4.37944 11.3602 4.53629 11.5534 4.53629C11.7467 4.53629 11.9035 4.37944 11.9035 4.18619C11.9035 2.25572 10.5031 0.68515 8.40249 0.68515Z" fill="#5DADEC"/>
<path id="Vector_5" d="M10.1528 0C9.95958 0 9.80273 0.142142 9.80273 0.335399C9.80273 0.528657 9.95958 0.700207 10.1528 0.700207C11.2031 0.700207 11.8887 1.47919 11.8887 2.43602C11.8887 2.62928 12.0599 2.78613 12.2535 2.78613C12.4471 2.78613 12.5889 2.62928 12.5889 2.43602C12.5889 1.09267 11.5533 0 10.1528 0Z" fill="#5DADEC"/>
</g>
</g>
</svg>
