<svg width="34" height="34" viewBox="0 0 34 34" fill="none" xmlns="http://www.w3.org/2000/svg">
<g id="comment 1">
<path id="Subtract" fill-rule="evenodd" clip-rule="evenodd" d="M33.6668 17C33.6668 7.79526 26.2049 0.333344 17.0002 0.333344C7.79542 0.333344 0.333496 7.79526 0.333496 17C0.333496 26.2048 7.79542 33.6667 17.0002 33.6667C19.4551 33.6667 21.7902 33.1348 23.8928 32.1787L30.4748 33.4102C32.2205 33.7368 33.7406 32.19 33.3835 30.4503L32.0811 24.1037C33.0986 21.9469 33.6668 19.5376 33.6668 17ZM8.66683 13.6667C6.82588 13.6667 5.3335 15.1591 5.3335 17C5.3335 18.841 6.82588 20.3333 8.66683 20.3333C10.5078 20.3333 12.0002 18.841 12.0002 17C12.0002 15.1591 10.5078 13.6667 8.66683 13.6667ZM13.6668 17C13.6668 15.1591 15.1592 13.6667 17.0002 13.6667C18.8411 13.6667 20.3335 15.1591 20.3335 17C20.3335 18.841 18.8411 20.3333 17.0002 20.3333C15.1592 20.3333 13.6668 18.841 13.6668 17ZM25.3335 13.6667C23.4925 13.6667 22.0002 15.1591 22.0002 17C22.0002 18.841 23.4925 20.3333 25.3335 20.3333C27.1744 20.3333 28.6668 18.841 28.6668 17C28.6668 15.1591 27.1744 13.6667 25.3335 13.6667Z" fill="#B0186A"/>
</g>
</svg>
