<svg width="25" height="24" viewBox="0 0 25 24" fill="none" xmlns="http://www.w3.org/2000/svg">
<g id="Search">
<path id="Icon / magnifyingglass" d="M11.7454 15.7086C12.8097 15.7086 13.7911 15.3677 14.5941 14.7996L17.6148 17.7917C17.755 17.9306 17.9398 18 18.1373 18C18.5516 18 18.8447 17.6844 18.8447 17.2804C18.8447 17.091 18.781 16.9079 18.6408 16.7754L15.6392 13.7959C16.2701 12.9753 16.6461 11.959 16.6461 10.8543C16.6461 8.18411 14.4411 6 11.7454 6C9.05609 6 6.84473 8.1778 6.84473 10.8543C6.84473 13.5245 9.04972 15.7086 11.7454 15.7086ZM11.7454 14.6607C9.64239 14.6607 7.90261 12.9374 7.90261 10.8543C7.90261 8.77117 9.64239 7.04787 11.7454 7.04787C13.8484 7.04787 15.5882 8.77117 15.5882 10.8543C15.5882 12.9374 13.8484 14.6607 11.7454 14.6607Z" fill="#EBEBF5" fill-opacity="0.6"/>
</g>
</svg>
